<svg width="213" height="95" viewBox="0 0 213 95" fill="none" xmlns="http://www.w3.org/2000/svg">
<g filter="url(#filter0_d_348_4532)">
<path d="M18.3563 8.508V13.968H9.04833V8.508H18.3563ZM7.95633 29.828V46H2.23633V8.508H7.95633V24.368H16.4323V29.828H7.95633ZM27.1529 8.508V46H21.3809V8.508H27.1529ZM49.1968 8.508V46H43.7888L43.7368 45.844L43.4248 44.96V8.508H49.1968ZM42.3848 42.048L35.9888 24.472V46H30.2168V8.508H35.6768L42.3848 27.124V42.048ZM58.179 46H52.459V8.508H58.179V46ZM67.591 11.16C69.255 12.8933 70.087 15.2853 70.087 18.336V35.652C70.087 39.084 69.203 41.684 67.435 43.452C65.7363 45.1507 63.275 46 60.051 46H59.271V40.54H60.415C61.8017 40.54 62.7897 40.2107 63.379 39.552C64.003 38.8587 64.315 37.732 64.315 36.172V18.336C64.315 16.8453 64.0377 15.7533 63.483 15.06C62.859 14.332 61.8363 13.968 60.415 13.968H59.271V8.508H60.519C61.9403 8.508 63.2923 8.73333 64.575 9.184C65.7883 9.66933 66.7937 10.328 67.591 11.16ZM96.9572 46L89.6252 8.508H94.3572L102.729 46H96.9572ZM93.3172 32.792L94.3572 38.252H88.5852L86.9732 46H81.2012L89.0012 11.004L91.3932 23.12L89.5732 32.792H93.3172Z" fill="white"/>
</g>
<g filter="url(#filter1_d_348_4532)">
<path d="M17.6013 50.392V55.432H0.945312V50.392H17.6013ZM11.9373 56.392V85H6.60931V56.392H11.9373ZM37.0691 85H31.4531L26.0771 70.456V65.896H27.2291C28.1891 65.896 28.9251 65.784 29.4371 65.56C29.9491 65.336 30.3171 65.016 30.5411 64.6C30.7971 64.152 30.9411 63.608 30.9731 62.968C31.0371 62.328 31.0691 61.592 31.0691 60.76C31.0691 59.992 31.0531 59.304 31.0211 58.696C30.9891 58.088 30.8451 57.528 30.5891 57.016C30.1411 55.96 29.0851 55.432 27.4211 55.432H26.0771V50.392H27.3251C28.7971 50.392 30.0291 50.6 31.0211 51.016C32.0451 51.4 32.9731 52.024 33.8051 52.888C34.2211 53.336 34.5731 53.8 34.8611 54.28C35.1491 54.728 35.3891 55.256 35.5811 55.864C35.7731 56.472 35.9011 57.176 35.9651 57.976C36.0611 58.744 36.1091 59.656 36.1091 60.712C36.1091 61.448 36.0931 62.12 36.0611 62.728C36.0291 63.304 35.9491 63.848 35.8211 64.36C35.7251 64.872 35.5811 65.368 35.3891 65.848C35.1971 66.328 34.9571 66.808 34.6691 67.288C33.8691 68.632 32.7811 69.592 31.4051 70.168L37.0691 85ZM25.1171 85H19.7891V50.392H25.1171V85ZM53.7862 85L47.0182 50.392H51.3862L59.1142 85H53.7862ZM50.4262 72.808L51.3862 77.848H46.0582L44.5702 85H39.2422L46.4422 52.696L48.6502 63.88L46.9702 72.808H50.4262ZM66.2722 85H60.9922V50.392H66.2722V85ZM74.9602 52.84C76.4962 54.44 77.2642 56.648 77.2642 59.464V75.448C77.2642 78.616 76.4482 81.016 74.8162 82.648C73.2482 84.216 70.9762 85 68.0002 85H67.2802V79.96H68.3362C69.6162 79.96 70.5282 79.656 71.0722 79.048C71.6482 78.408 71.9362 77.368 71.9362 75.928V59.464C71.9362 58.088 71.6802 57.08 71.1682 56.44C70.5922 55.768 69.6482 55.432 68.3362 55.432H67.2802V50.392H68.4322C69.7442 50.392 70.9922 50.6 72.1762 51.016C73.2962 51.464 74.2242 52.072 74.9602 52.84ZM84.8358 50.392V85H79.5078V50.392H84.8358ZM102.544 50.392V55.432H93.9521V50.392H102.544ZM93.9521 79.672H102.544V85H93.9521V79.672ZM92.9441 70.072V85H87.6641V50.392H92.9441V65.032H100.768V70.072H92.9441Z" fill="white"/>
</g>
<path d="M158.292 51.6735C157.778 56.4447 157.149 63.8817 158.111 64.9216C158.83 65.6947 160.362 66.0912 161.897 66.1567C163.437 66.2242 164.996 65.9283 165.769 65.2113C166.808 64.248 166.746 56.7815 166.593 51.9888C166.579 51.4151 165.293 50.8328 165.275 50.3519C165.255 49.8697 166.501 49.4897 166.486 49.13C166.452 48.3862 166.427 47.9431 166.427 47.9431C166.427 47.9431 166.453 46.5315 163.366 46.2525L163.86 33.2699C163.886 32.6091 165.247 31.5957 165.247 31.5957L164.11 26.7213L162.615 26.6636L161.109 31.4403C161.109 31.4403 162.388 32.5505 162.364 33.2097L161.873 46.2177C159.043 46.3486 158.768 47.649 158.768 47.649L158.621 48.8285C158.578 49.1829 159.79 49.6586 159.735 50.1361C159.675 50.6206 158.355 51.1042 158.292 51.6735Z" fill="#222030"/>
<path d="M182.809 64.9316C182.933 64.8956 183.128 64.7406 183.31 64.2433C183.492 63.7458 183.621 62.9631 183.627 61.9359L183.627 61.9265L183.627 61.9171C183.808 57.0905 181.472 53.0503 180.273 48.0647C180.198 47.752 180.287 47.4531 180.412 47.2164C180.537 46.9798 180.706 46.775 180.905 46.5717C181.304 46.165 181.835 45.7681 182.432 45.3847C183.437 44.7391 184.601 44.159 185.592 43.7988L185.375 42.8938L170.675 47.1837L170.893 48.0888C171.916 47.8608 173.188 47.7299 174.351 47.7429C175.042 47.7506 175.682 47.8059 176.211 47.9417C176.476 48.0096 176.715 48.0953 176.93 48.2327C177.145 48.3702 177.357 48.5811 177.432 48.8939C178.574 53.6411 178.062 58.0643 180.743 62.7574L180.748 62.7661L180.753 62.7748C181.219 63.6639 181.683 64.2739 182.065 64.6067C182.446 64.9396 182.686 64.9677 182.809 64.9317L182.809 64.9316ZM182.223 62.492C182.093 62.5299 181.952 62.5156 181.808 62.45C181.664 62.3844 181.519 62.2688 181.383 62.1097C181.246 61.9505 181.12 61.7511 181.012 61.5227C180.904 61.2943 180.816 61.0415 180.753 60.7786C180.69 60.5157 180.653 60.2479 180.644 59.9906C180.635 59.7332 180.655 59.4913 180.702 59.2786C180.749 59.0659 180.822 58.8867 180.918 58.7511C181.014 58.6155 181.13 58.5263 181.26 58.4884C181.522 58.412 181.824 58.5495 182.099 58.8708C182.375 59.1921 182.602 59.6709 182.729 60.2018C182.793 60.4646 182.83 60.7324 182.838 60.9898C182.847 61.2472 182.827 61.4891 182.78 61.7018C182.733 61.9144 182.66 62.0937 182.564 62.2293C182.468 62.3649 182.352 62.4542 182.223 62.492ZM185.104 41.7677L184.893 40.8919L170.193 45.1819L170.404 46.0578L185.104 41.7677ZM184.622 39.7659L184.412 38.8901L169.712 43.1801L169.923 44.0559L184.622 39.7659ZM184.15 37.7617C183.693 35.8338 183.025 32.6353 183.808 29.4259L182.154 29.9087C181.768 30.5419 181.441 31.1504 181.171 31.7354C181.038 31.3084 181.002 30.7693 180.999 30.2457L178.746 30.9033C178.692 31.5698 178.769 32.2151 178.79 32.8695C178.487 32.2982 178.168 31.7316 177.946 31.1366L174.396 32.1727C174.679 32.5202 174.89 32.9407 175.075 33.3887C174.593 32.9882 174.013 32.7022 173.39 32.4664L171.148 33.1205C171.003 33.8225 170.892 34.5146 170.907 35.1701C170.373 34.6801 170.127 34.0864 169.916 33.4801L168.179 33.9869C168.281 34.2567 168.311 34.5551 168.209 35.0764C167.968 34.658 167.623 34.4333 167.235 34.2626L165.983 34.628C168.105 36.9896 168.963 40.1323 169.433 42.0565L184.15 37.7617Z" fill="#222030"/>
<path d="M191.704 62.2457L196.05 46.0274C199.236 45.5439 201.96 43.2177 202.868 39.8314C203.823 36.267 202.318 32.6164 199.509 30.6222L197.456 38.2858L192.109 36.8532L194.097 29.0766C190.603 29.2864 187.539 31.8083 186.584 35.3728C185.677 38.759 186.873 42.1359 189.391 44.1475L185.045 60.3658C184.854 61.0787 185.245 61.7566 185.958 61.9476L190.057 63.046C190.835 63.35 191.626 62.8934 191.704 62.2457Z" fill="#222030"/>
<path d="M147.971 45.9306L142.619 47.9627C142.509 48.0042 142.409 48.067 142.323 48.1475C142.237 48.228 142.169 48.3246 142.12 48.4317C142.072 48.5389 142.046 48.6545 142.042 48.7719C142.039 48.8893 142.059 49.0063 142.101 49.1161L149.149 69.4469C149.188 69.5596 149.249 69.6633 149.329 69.752C149.409 69.8406 149.506 69.9124 149.614 69.963C149.722 70.0136 149.839 70.0421 149.958 70.0467C150.077 70.0513 150.196 70.032 150.308 69.9899L156.819 67.5309C156.931 67.4887 157.033 67.4245 157.12 67.342C157.206 67.2596 157.275 67.1607 157.323 67.0511C157.37 66.9415 157.395 66.8235 157.396 66.704C157.397 66.5845 157.375 66.4661 157.329 66.3556L149.123 46.4503C149.081 46.3405 149.019 46.2399 148.938 46.1543C148.858 46.0687 148.762 45.9998 148.654 45.9515C148.547 45.9032 148.432 45.8765 148.315 45.8729C148.197 45.8694 148.08 45.889 147.971 45.9306ZM150.32 30.2632L146.025 31.9113C145.828 31.9864 145.648 32.0998 145.495 32.245C145.342 32.3901 145.219 32.5641 145.134 32.7569C144.994 33.0686 144.956 33.4163 145.025 33.7509C144.996 33.7378 144.969 33.7209 144.945 33.7076C144.517 33.4788 143.873 33.1317 143.075 33.291C142.154 33.4928 141.25 33.7621 140.369 34.0967C140.366 34.0975 140.363 34.0985 140.361 34.0997C139.064 34.6031 136.504 35.8161 133.92 38.2765C132.937 39.2089 132.147 40.3246 131.593 41.5607C130.63 43.7018 130.864 45.7645 131.156 46.6455C131.44 47.5113 132.013 48.2532 132.779 48.7466L133.934 47.961C133.934 47.961 134.045 47.3531 134.127 46.9172C134.225 46.4667 134.388 46.0331 134.612 45.6305C135.089 44.7689 136.009 43.9103 136.589 43.6085C137.584 43.1018 138.616 43.1067 139.934 43.6232C140.227 43.7387 141.092 44.9204 141.9 46.4777C141.967 46.6072 142.079 46.7076 142.215 46.7597C142.352 46.8118 142.502 46.812 142.639 46.7603L147.101 45.0664C147.243 45.0118 147.359 44.9047 147.424 44.7673C147.49 44.6299 147.5 44.4726 147.453 44.3278C147.075 43.1733 146.484 41.405 146.436 41.0424C146.349 40.3764 146.455 39.9755 146.491 39.8682C146.584 39.5907 146.761 39.3486 146.997 39.1749C147.009 39.1789 147.02 39.1855 147.029 39.1941C147.039 39.2027 147.046 39.2132 147.052 39.2249L147.113 39.4011L147.123 39.43C147.198 39.6276 147.311 39.8084 147.456 39.9622C147.6 40.1159 147.774 40.2394 147.967 40.3257C148.16 40.412 148.367 40.4593 148.578 40.4649C148.79 40.4705 149 40.4343 149.197 40.3583L153.501 38.7092C153.648 38.653 153.766 38.5409 153.831 38.3975C153.895 38.2542 153.9 38.0911 153.845 37.9439L151.089 30.6138C151.062 30.5401 151.021 30.4725 150.967 30.4149C150.914 30.3573 150.849 30.3109 150.778 30.2783C150.706 30.2457 150.629 30.2276 150.551 30.225C150.472 30.2224 150.394 30.2354 150.32 30.2632Z" fill="#222030"/>
<g filter="url(#filter2_d_348_4532)">
<path d="M205 52.5C205 52.2239 205.224 52 205.5 52H208.5C208.776 52 209 52.2239 209 52.5V57.5C209 57.7761 208.776 58 208.5 58H205.5C205.224 58 205 57.7761 205 57.5V52.5Z" fill="white"/>
<path d="M125 52.5C125 52.2239 125.224 52 125.5 52H128.5C128.776 52 129 52.2239 129 52.5V57.5C129 57.7761 128.776 58 128.5 58H125.5C125.224 58 125 57.7761 125 57.5L125 52.5Z" fill="white"/>
<path d="M131.84 7.44629H202.244V14.8313H131.84V7.44629Z" fill="white"/>
<path d="M127 5.5C127 5.22386 127.224 5 127.5 5H132.5C132.776 5 133 5.22386 133 5.5V84.5C133 84.7761 132.776 85 132.5 85H127.5C127.224 85 127 84.7761 127 84.5V5.5Z" fill="white"/>
<path d="M201 5.5C201 5.22386 201.224 5 201.5 5H206.5C206.776 5 207 5.22386 207 5.5V84.5C207 84.7761 206.776 85 206.5 85H201.5C201.224 85 201 84.7761 201 84.5V5.5Z" fill="white"/>
<path d="M125 82H209V87H125V82Z" fill="white"/>
<path d="M132 55H202V83H132V55Z" fill="white"/>
</g>
<defs>
<filter id="filter0_d_348_4532" x="2.23633" y="8.50806" width="103.493" height="40.4919" filterUnits="userSpaceOnUse" color-interpolation-filters="sRGB">
<feFlood flood-opacity="0" result="BackgroundImageFix"/>
<feColorMatrix in="SourceAlpha" type="matrix" values="0 0 0 0 0 0 0 0 0 0 0 0 0 0 0 0 0 0 127 0" result="hardAlpha"/>
<feOffset dx="2" dy="2"/>
<feGaussianBlur stdDeviation="0.5"/>
<feComposite in2="hardAlpha" operator="out"/>
<feColorMatrix type="matrix" values="0 0 0 0 0 0 0 0 0 0 0 0 0 0 0 0 0 0 0.25 0"/>
<feBlend mode="normal" in2="BackgroundImageFix" result="effect1_dropShadow_348_4532"/>
<feBlend mode="normal" in="SourceGraphic" in2="effect1_dropShadow_348_4532" result="shape"/>
</filter>
<filter id="filter1_d_348_4532" x="0.945312" y="50.392" width="104.599" height="37.608" filterUnits="userSpaceOnUse" color-interpolation-filters="sRGB">
<feFlood flood-opacity="0" result="BackgroundImageFix"/>
<feColorMatrix in="SourceAlpha" type="matrix" values="0 0 0 0 0 0 0 0 0 0 0 0 0 0 0 0 0 0 127 0" result="hardAlpha"/>
<feOffset dx="2" dy="2"/>
<feGaussianBlur stdDeviation="0.5"/>
<feComposite in2="hardAlpha" operator="out"/>
<feColorMatrix type="matrix" values="0 0 0 0 0 0 0 0 0 0 0 0 0 0 0 0 0 0 0.25 0"/>
<feBlend mode="normal" in2="BackgroundImageFix" result="effect1_dropShadow_348_4532"/>
<feBlend mode="normal" in="SourceGraphic" in2="effect1_dropShadow_348_4532" result="shape"/>
</filter>
<filter id="filter2_d_348_4532" x="121" y="5" width="92" height="90" filterUnits="userSpaceOnUse" color-interpolation-filters="sRGB">
<feFlood flood-opacity="0" result="BackgroundImageFix"/>
<feColorMatrix in="SourceAlpha" type="matrix" values="0 0 0 0 0 0 0 0 0 0 0 0 0 0 0 0 0 0 127 0" result="hardAlpha"/>
<feOffset dy="4"/>
<feGaussianBlur stdDeviation="2"/>
<feComposite in2="hardAlpha" operator="out"/>
<feColorMatrix type="matrix" values="0 0 0 0 0 0 0 0 0 0 0 0 0 0 0 0 0 0 0.25 0"/>
<feBlend mode="normal" in2="BackgroundImageFix" result="effect1_dropShadow_348_4532"/>
<feBlend mode="normal" in="SourceGraphic" in2="effect1_dropShadow_348_4532" result="shape"/>
</filter>
</defs>
</svg>
