<svg width="202" height="100" viewBox="0 0 202 100" fill="none" xmlns="http://www.w3.org/2000/svg">
<g clip-path="url(#clip0_563_7206)">
<path d="M138.57 40.1407L133.556 42.0445C133.453 42.0833 133.359 42.1422 133.279 42.2176C133.199 42.293 133.134 42.3834 133.089 42.4838C133.044 42.5842 133.019 42.6925 133.016 42.8025C133.013 42.9125 133.031 43.0221 133.07 43.1249L139.674 62.1717C139.71 62.2773 139.768 62.3745 139.842 62.4576C139.917 62.5406 140.008 62.6079 140.109 62.6553C140.21 62.7027 140.32 62.7294 140.432 62.7337C140.543 62.738 140.655 62.7199 140.759 62.6805L146.86 60.3768C146.964 60.3372 147.06 60.277 147.141 60.1998C147.222 60.1226 147.287 60.0299 147.331 59.9272C147.376 59.8246 147.399 59.714 147.4 59.6021C147.401 59.4902 147.38 59.3792 147.337 59.2757L139.649 40.6276C139.61 40.5246 139.552 40.4304 139.476 40.3502C139.401 40.27 139.311 40.2055 139.21 40.1602C139.11 40.115 139.002 40.09 138.892 40.0867C138.782 40.0833 138.673 40.1017 138.57 40.1407ZM140.771 25.4627L136.747 27.0068C136.562 27.0772 136.394 27.1834 136.25 27.3194C136.107 27.4554 135.992 27.6184 135.912 27.799C135.781 28.091 135.746 28.4168 135.81 28.7302C135.783 28.718 135.758 28.7021 135.735 28.6897C135.335 28.4753 134.731 28.1501 133.983 28.2994C133.121 28.4884 132.273 28.7407 131.448 29.0542C131.445 29.0549 131.443 29.0558 131.441 29.057C130.226 29.5286 127.827 30.6649 125.407 32.97C124.486 33.8435 123.745 34.8887 123.226 36.0468C122.324 38.0527 122.543 39.9851 122.817 40.8104C123.083 41.6216 123.62 42.3165 124.338 42.7788L125.42 42.0428C125.42 42.0428 125.523 41.4734 125.601 41.065C125.692 40.6429 125.845 40.2367 126.055 39.8595C126.501 39.0523 127.363 38.248 127.907 37.9652C128.839 37.4905 129.806 37.4951 131.04 37.979C131.315 38.0872 132.125 39.1943 132.882 40.6532C132.945 40.7746 133.05 40.8686 133.178 40.9174C133.306 40.9662 133.447 40.9664 133.575 40.918L137.755 39.3311C137.888 39.2799 137.996 39.1796 138.058 39.0509C138.119 38.9221 138.129 38.7748 138.085 38.6391C137.731 37.5575 137.177 35.9009 137.132 35.5612C137.051 34.9373 137.15 34.5617 137.183 34.4612C137.271 34.2011 137.436 33.9744 137.657 33.8116C137.669 33.8154 137.679 33.8216 137.688 33.8296C137.697 33.8377 137.704 33.8475 137.709 33.8585L137.767 34.0236L137.776 34.0507C137.846 34.2357 137.952 34.4052 138.087 34.5492C138.223 34.6932 138.386 34.809 138.566 34.8898C138.747 34.9706 138.941 35.0149 139.139 35.0202C139.337 35.0254 139.534 34.9915 139.718 34.9203L143.751 33.3754C143.888 33.3227 143.999 33.2177 144.06 33.0834C144.12 32.949 144.125 32.7963 144.073 32.6584L141.491 25.7912C141.466 25.7222 141.427 25.6589 141.377 25.6049C141.327 25.551 141.267 25.5075 141.2 25.4769C141.133 25.4464 141.06 25.4294 140.987 25.427C140.913 25.4245 140.84 25.4367 140.771 25.4627Z" fill="#E88232"/>
</g>
<g clip-path="url(#clip1_563_7206)">
<path d="M172.588 66.418C172.704 66.3842 172.887 66.239 173.058 65.7731C173.228 65.3071 173.349 64.5738 173.354 63.6115L173.354 63.6027L173.355 63.5939C173.524 59.0721 171.335 55.287 170.212 50.6164C170.142 50.3234 170.225 50.0434 170.342 49.8216C170.459 49.5999 170.618 49.4081 170.805 49.2176C171.178 48.8366 171.676 48.4648 172.235 48.1055C173.176 47.5007 174.266 46.9573 175.196 46.6199L174.992 45.772L161.22 49.7909L161.424 50.6389C162.383 50.4253 163.575 50.3026 164.665 50.3148C165.312 50.322 165.911 50.3738 166.407 50.5011C166.655 50.5647 166.878 50.645 167.08 50.7737C167.281 50.9025 167.48 51.1002 167.55 51.3931C168.62 55.8405 168.141 59.9844 170.652 64.3811L170.657 64.3892L170.661 64.3974C171.099 65.2303 171.533 65.8018 171.891 66.1136C172.248 66.4255 172.473 66.4518 172.588 66.4181L172.588 66.418ZM172.039 64.1325C171.917 64.168 171.785 64.1546 171.65 64.0931C171.515 64.0317 171.38 63.9233 171.252 63.7742C171.124 63.6252 171.006 63.4383 170.905 63.2244C170.803 63.0104 170.721 62.7735 170.662 62.5272C170.602 62.2809 170.568 62.0301 170.56 61.789C170.551 61.5479 170.57 61.3212 170.614 61.122C170.658 60.9228 170.727 60.7548 170.817 60.6278C170.906 60.5008 171.015 60.4172 171.136 60.3817C171.382 60.3101 171.665 60.4389 171.923 60.7399C172.181 61.041 172.394 61.4895 172.513 61.9868C172.573 62.2331 172.607 62.484 172.615 62.7251C172.624 62.9662 172.605 63.1929 172.561 63.3921C172.517 63.5914 172.448 63.7593 172.359 63.8863C172.269 64.0134 172.16 64.097 172.039 64.1325ZM174.738 44.717L174.541 43.8965L160.769 47.9156L160.966 48.7361L174.738 44.717ZM174.287 42.8417L174.09 42.0212L160.318 46.0402L160.515 46.8607L174.287 42.8417ZM173.844 40.964C173.416 39.1579 172.791 36.1614 173.524 33.1547L171.974 33.607C171.612 34.2003 171.306 34.7703 171.053 35.3183C170.929 34.9183 170.895 34.4133 170.892 33.9227L168.781 34.5388C168.73 35.1632 168.803 35.7678 168.823 36.3808C168.539 35.8456 168.24 35.3148 168.032 34.7573L164.706 35.728C164.972 36.0535 165.169 36.4476 165.342 36.8672C164.891 36.492 164.348 36.2241 163.763 36.0032L161.664 36.6159C161.528 37.2736 161.424 37.922 161.438 38.5361C160.938 38.0771 160.707 37.5209 160.509 36.9529L158.882 37.4276C158.978 37.6803 159.006 37.96 158.91 38.4483C158.685 38.0564 158.361 37.8458 157.997 37.6859L156.824 38.0282C158.813 40.2407 159.617 43.1849 160.056 44.9875L173.844 40.964Z" fill="#E88232"/>
</g>
<path d="M149.174 55.294C148.692 59.7638 148.103 66.7311 149.005 67.7053C149.678 68.4297 151.113 68.8011 152.551 68.8624C153.993 68.9257 155.454 68.6485 156.178 67.9768C157.152 67.0743 157.094 60.0794 156.951 55.5893C156.937 55.0519 155.733 54.5064 155.715 54.0558C155.697 53.6041 156.864 53.2481 156.85 52.9112C156.818 52.2143 156.795 51.7992 156.795 51.7992C156.795 51.7992 156.82 50.4768 153.927 50.2154L154.39 38.0527C154.415 37.4337 155.69 36.4843 155.69 36.4843L154.624 31.9177L153.224 31.8636L151.813 36.3386C151.813 36.3386 153.011 37.3787 152.989 37.9963L152.528 50.1827C149.877 50.3054 149.62 51.5236 149.62 51.5236L149.482 52.6286C149.442 52.9607 150.577 53.4063 150.526 53.8536C150.47 54.3075 149.233 54.7606 149.174 55.294Z" fill="#E88232"/>
<g clip-path="url(#clip2_563_7206)">
<path d="M181.094 62.2312L185.165 47.0372C188.149 46.5843 190.702 44.4049 191.552 41.2326C192.447 37.8932 191.037 34.4732 188.405 32.605L186.482 39.7845L181.473 38.4424L183.335 31.1569C180.062 31.3535 177.192 33.7161 176.297 37.0555C175.447 40.2279 176.568 43.3914 178.926 45.276L174.855 60.47C174.676 61.1379 175.042 61.773 175.71 61.952L179.55 62.9809C180.279 63.2658 181.02 62.838 181.094 62.2312Z" fill="#E88232"/>
</g>
<rect x="120.495" y="10" width="5.62106" height="74.9474" rx="0.5" fill="white"/>
<rect x="188.884" y="10" width="5.62106" height="74.9474" rx="0.5" fill="white"/>
<rect x="125.029" y="57.0325" width="65.9576" height="26.752" fill="white"/>
<rect x="192.632" y="51.1167" width="3.74737" height="5.39972" rx="0.5" fill="white"/>
<rect x="117.684" y="10" width="78.6948" height="5.62106" rx="0.5" fill="white"/>
<rect x="118.621" y="51.1167" width="3.74737" height="5.39972" rx="0.5" fill="white"/>
<path d="M17.1013 50.392V55.432H0.445312V50.392H17.1013ZM11.4373 56.392V85H6.10931V56.392H11.4373ZM36.5691 85H30.9531L25.5771 70.456V65.896H26.7291C27.6891 65.896 28.4251 65.784 28.9371 65.56C29.4491 65.336 29.8171 65.016 30.0411 64.6C30.2971 64.152 30.4411 63.608 30.4731 62.968C30.5371 62.328 30.5691 61.592 30.5691 60.76C30.5691 59.992 30.5531 59.304 30.5211 58.696C30.4891 58.088 30.3451 57.528 30.0891 57.016C29.6411 55.96 28.5851 55.432 26.9211 55.432H25.5771V50.392H26.8251C28.2971 50.392 29.5291 50.6 30.5211 51.016C31.5451 51.4 32.4731 52.024 33.3051 52.888C33.7211 53.336 34.0731 53.8 34.3611 54.28C34.6491 54.728 34.8891 55.256 35.0811 55.864C35.2731 56.472 35.4011 57.176 35.4651 57.976C35.5611 58.744 35.6091 59.656 35.6091 60.712C35.6091 61.448 35.5931 62.12 35.5611 62.728C35.5291 63.304 35.4491 63.848 35.3211 64.36C35.2251 64.872 35.0811 65.368 34.8891 65.848C34.6971 66.328 34.4571 66.808 34.1691 67.288C33.3691 68.632 32.2811 69.592 30.9051 70.168L36.5691 85ZM24.6171 85H19.2891V50.392H24.6171V85ZM53.2862 85L46.5182 50.392H50.8862L58.6142 85H53.2862ZM49.9262 72.808L50.8862 77.848H45.5582L44.0702 85H38.7422L45.9422 52.696L48.1502 63.88L46.4702 72.808H49.9262ZM65.7722 85H60.4922V50.392H65.7722V85ZM74.4602 52.84C75.9962 54.44 76.7642 56.648 76.7642 59.464V75.448C76.7642 78.616 75.9482 81.016 74.3162 82.648C72.7482 84.216 70.4762 85 67.5002 85H66.7802V79.96H67.8362C69.1162 79.96 70.0282 79.656 70.5722 79.048C71.1482 78.408 71.4362 77.368 71.4362 75.928V59.464C71.4362 58.088 71.1802 57.08 70.6682 56.44C70.0922 55.768 69.1482 55.432 67.8362 55.432H66.7802V50.392H67.9322C69.2442 50.392 70.4922 50.6 71.6762 51.016C72.7962 51.464 73.7242 52.072 74.4602 52.84ZM84.3358 50.392V85H79.0078V50.392H84.3358ZM102.044 50.392V55.432H93.4521V50.392H102.044ZM93.4521 79.672H102.044V85H93.4521V79.672ZM92.4441 70.072V85H87.1641V50.392H92.4441V65.032H100.268V70.072H92.4441Z" fill="white"/>
<path d="M20.0597 8.392V13.432H11.4677V8.392H20.0597ZM10.4597 28.072V43H5.17969V8.392H10.4597V23.032H18.2837V28.072H10.4597ZM28.1796 8.392V43H22.8516V8.392H28.1796ZM48.5278 8.392V43H43.5358L43.4878 42.856L43.1998 42.04V8.392H48.5278ZM42.2398 39.352L36.3358 23.128V43H31.0078V8.392H36.0478L42.2398 25.576V39.352ZM56.8191 43H51.5391V8.392H56.8191V43ZM65.5071 10.84C67.0431 12.44 67.8111 14.648 67.8111 17.464V33.448C67.8111 36.616 66.9951 39.016 65.3631 40.648C63.7951 42.216 61.5231 43 58.5471 43H57.8271V37.96H58.8831C60.1631 37.96 61.0751 37.656 61.6191 37.048C62.1951 36.408 62.4831 35.368 62.4831 33.928V17.464C62.4831 16.088 62.2271 15.08 61.7151 14.44C61.1391 13.768 60.1951 13.432 58.8831 13.432H57.8271V8.392H58.9791C60.2911 8.392 61.5391 8.6 62.7231 9.016C63.8431 9.464 64.7711 10.072 65.5071 10.84ZM92.6143 43L85.8463 8.392H90.2143L97.9423 43H92.6143ZM89.2543 30.808L90.2143 35.848H84.8863L83.3983 43H78.0703L85.2703 10.696L87.4783 21.88L85.7983 30.808H89.2543Z" fill="white"/>
<defs>
<clipPath id="clip0_563_7206">
<rect width="35.6805" height="35.6805" fill="white" transform="translate(113 38.9753) rotate(-37.0665)"/>
</clipPath>
<clipPath id="clip1_563_7206">
<rect width="30.1135" height="31.5923" fill="white" transform="translate(173.145 69.6238) rotate(-149.896)"/>
</clipPath>
<clipPath id="clip2_563_7206">
<rect width="29.3348" height="29.3348" fill="white" transform="translate(187.333 26.5908) rotate(60)"/>
</clipPath>
</defs>
</svg>
